<svg id="Layer_1" data-name="Layer 1" xmlns="http://www.w3.org/2000/svg" width="928.04" height="445.87" viewBox="0 0 928.04 445.87"><defs><style>.cls-1{fill:#194f90;}.cls-2{fill:#4ac1e0;}.cls-3{fill:#52c3df;}</style></defs><title>logo</title><path class="cls-1" d="M527,644H495.22q-7.86,0-7.85-7.85V411.48q0-7.85,7.85-7.85H527q7.85,0,7.85,7.85V518h.75q3-9,11.59-23.18L604,411.48q4.85-7.85,14.58-7.85h36.63q4.11,0,5,2.43t-2.06,6.17l-71,98.31,79.25,124.11q2.61,4.49.93,6.92c-1.12,1.62-3.43,2.43-6.91,2.43H633.16q-13.1,0-17.57-7.85l-57.2-91.59-23.55,27.67v63.92Q534.84,644,527,644Z" transform="translate(-485.96 -309.06)"/><path class="cls-1" d="M694.09,421.2V388.68q0-7.47,7.47-7.48h32.53q7.47,0,7.47,7.1v32.9q0,7.49-7.47,7.48H701.56Q694.09,428.68,694.09,421.2Zm0,215V461.2q0-7.84,7.47-7.85h32.15q7.86,0,7.85,7.85v175q0,4.86-1.68,6.35t-5.79,1.5H701.94Q694.1,644,694.09,636.15Z" transform="translate(-485.96 -309.06)"/><path class="cls-1" d="M788.66,494.47H773.71q-4.49,0-6.17-1.5c-1.12-1-1.68-3-1.68-6V461.2q0-7.84,7.85-7.85h14.95q4.11,0,4.11-4.11V413.72q0-7.85,8.23-7.85h31.4q7.85,0,7.85,7.85v35.52q0,4.11,4.49,4.11H873.9q7.85,0,7.85,7.85V487c0,2.75-.57,4.68-1.69,5.8s-3.17,1.68-6.16,1.68H844.74q-4.49,0-4.49,4.11V581.2q0,11.58,5.23,16.63t17.2,5h15q7.86,0,7.85,7.85v25.79q0,4.13-1.68,5.8T877.63,644h-22.8Q825.3,644,809,628.3t-16.27-44.86V498.58Q792.77,494.47,788.66,494.47Z" transform="translate(-485.96 -309.06)"/><path class="cls-1" d="M1057.07,644H974.45q-29.54,0-45.6-15.7t-16.08-45.23V514.28q0-29.52,16.08-45.23t45.6-15.7H1004q29.53,0,45.61,15.7t16.07,45.23v47.48q0,7.85-7.85,7.85H964c-3,0-4.49,1.37-4.49,4.11v8.22q0,11.59,5,16.64t17,5h75.51q7.85,0,7.85,8.22v24.67q0,4.13-1.69,5.8T1057.07,644ZM964,537.83h50.84c2.73,0,4.11-1.36,4.11-4.11V515.78q0-12-4.86-16.82t-16.82-4.86h-15.7q-12,0-16.83,4.86t-4.86,16.82v17.94C959.87,536.47,961.24,537.83,964,537.83Z" transform="translate(-485.96 -309.06)"/><path class="cls-2" d="M493.89,754.94h-6.36a1.39,1.39,0,0,1-1.57-1.57V708.43a1.39,1.39,0,0,1,1.57-1.57h6.36a1.39,1.39,0,0,1,1.57,1.57v21.31h.15a24.66,24.66,0,0,1,2.32-4.64l11.36-16.67a3.22,3.22,0,0,1,2.92-1.57h7.32c.55,0,.89.16,1,.49s0,.73-.41,1.23l-14.2,19.66,15.85,24.83c.34.59.41,1.06.18,1.38a1.56,1.56,0,0,1-1.38.49h-5.46c-1.74,0-2.91-.53-3.51-1.57l-11.44-18.32-4.71,5.53v12.79A1.39,1.39,0,0,1,493.89,754.94Z" transform="translate(-485.96 -309.06)"/><path class="cls-2" d="M537.55,708.43v44.94a1.39,1.39,0,0,1-1.57,1.57h-6.35a1.39,1.39,0,0,1-1.57-1.57V708.43a1.39,1.39,0,0,1,1.57-1.57H536A1.39,1.39,0,0,1,537.55,708.43Z" transform="translate(-485.96 -309.06)"/><path class="cls-2" d="M567.61,754.94h-8.38q-5.91,0-9.12-3.14t-3.21-9v-23.7q0-5.91,3.21-9t9.12-3.14h8.38q5.89,0,9.12,3.14t3.21,9v23.7q0,5.91-3.21,9T567.61,754.94Zm-6.88-8.23H566a3.72,3.72,0,0,0,4.41-4.41V719.5a3.72,3.72,0,0,0-4.41-4.41h-5.31a4.54,4.54,0,0,0-3.37,1,4.8,4.8,0,0,0-1,3.4v22.8a4.8,4.8,0,0,0,1,3.4A4.54,4.54,0,0,0,560.73,746.71Z" transform="translate(-485.96 -309.06)"/><path class="cls-2" d="M587.72,742.67v-1.49a1.39,1.39,0,0,1,1.57-1.57h6.35a1.39,1.39,0,0,1,1.57,1.57v.6c0,1.89.38,3.19,1.12,3.89s2.12,1,4.11,1H606c1.94,0,3.3-.37,4.07-1.12s1.16-2.14,1.16-4.19v-.89a3.74,3.74,0,0,0-1.75-3.33,9.33,9.33,0,0,0-4.38-1.38,48.24,48.24,0,0,1-5.64-.86,37.77,37.77,0,0,1-5.65-1.65,8.84,8.84,0,0,1-4.37-4,14.7,14.7,0,0,1-1.76-7.59v-2.62q0-5.82,3.29-9t9.12-3.22h7.48q5.91,0,9.2,3.22t3.28,9v1.42a1.39,1.39,0,0,1-1.57,1.57h-6.35a1.39,1.39,0,0,1-1.57-1.57v-.44c0-2-.37-3.27-1.12-4s-2.12-1-4.11-1h-2.92c-2,0-3.43.38-4.15,1.15s-1.08,2.29-1.08,4.53v1.42q0,3.51,6.13,4a37.91,37.91,0,0,1,11.29,2.54,9.59,9.59,0,0,1,4.37,4,14,14,0,0,1,1.76,7.36v2.54q0,5.83-3.29,9.05t-9.12,3.22h-8.15q-5.83,0-9.12-3.22T587.72,742.67Z" transform="translate(-485.96 -309.06)"/><path class="cls-2" d="M637.13,754.94h-6.35a1.39,1.39,0,0,1-1.57-1.57V708.43a1.39,1.39,0,0,1,1.57-1.57h6.35a1.39,1.39,0,0,1,1.57,1.57v21.31h.15a24.66,24.66,0,0,1,2.32-4.64l11.37-16.67a3.21,3.21,0,0,1,2.91-1.57h7.33c.55,0,.88.16,1,.49s0,.73-.41,1.23l-14.21,19.66L665,753.07c.35.59.41,1.06.19,1.38a1.59,1.59,0,0,1-1.38.49h-5.46c-1.75,0-2.92-.53-3.52-1.57l-11.43-18.32-4.72,5.53v12.79A1.39,1.39,0,0,1,637.13,754.94Z" transform="translate(-485.96 -309.06)"/><path class="cls-2" d="M719.3,706.86h11.06a1.39,1.39,0,0,1,1.57,1.57v44.94a1.39,1.39,0,0,1-1.57,1.57h-6.13a1.39,1.39,0,0,1-1.57-1.57V717.93h-.3l-7.62,25a1.83,1.83,0,0,1-1.87,1.5h-6.28a1.83,1.83,0,0,1-1.87-1.5l-7.78-25.12h-.29v35.52a2,2,0,0,1-.3,1.23,1.75,1.75,0,0,1-1.27.34H689a1.4,1.4,0,0,1-1.58-1.57V708.43a1.4,1.4,0,0,1,1.58-1.57h11.14a1.41,1.41,0,0,1,1.42,1l7.92,26.39h.45l8-26.39A1.27,1.27,0,0,1,719.3,706.86Z" transform="translate(-485.96 -309.06)"/><path class="cls-2" d="M746.66,754.94h-7.17c-.9,0-1.2-.53-.9-1.57l11.81-44.94a2.16,2.16,0,0,1,2.24-1.57h10a2,2,0,0,1,2.24,1.57l11.81,44.94c.3,1,0,1.57-.89,1.57h-7.18a1.48,1.48,0,0,1-1.12-.34,2.55,2.55,0,0,1-.45-1.23l-2.09-8.23H750.33l-2.1,8.23a2.34,2.34,0,0,1-.48,1.23A1.53,1.53,0,0,1,746.66,754.94Zm10.84-39-5.38,21.61h11.07l-5.39-21.61Z" transform="translate(-485.96 -309.06)"/><path class="cls-2" d="M791.07,754.94h-6.2a1.39,1.39,0,0,1-1.57-1.57V708.43a1.39,1.39,0,0,1,1.57-1.57h5.6a2.12,2.12,0,0,1,2.1,1l15.1,28.33h.3V708.43a1.39,1.39,0,0,1,1.57-1.57h6.2a1.39,1.39,0,0,1,1.57,1.57v44.94a1.39,1.39,0,0,1-1.57,1.57h-5.45a2.51,2.51,0,0,1-2.4-1.5l-14.95-27.81h-.3v27.74A1.39,1.39,0,0,1,791.07,754.94Z" transform="translate(-485.96 -309.06)"/><path class="cls-2" d="M832,754.94h-7.17c-.9,0-1.2-.53-.9-1.57l11.81-44.94a2.16,2.16,0,0,1,2.24-1.57h10a2,2,0,0,1,2.24,1.57L862,753.37c.3,1,0,1.57-.89,1.57H854a1.48,1.48,0,0,1-1.12-.34,2.55,2.55,0,0,1-.45-1.23l-2.09-8.23H835.71l-2.1,8.23a2.34,2.34,0,0,1-.48,1.23A1.53,1.53,0,0,1,832,754.94Zm10.84-39-5.38,21.61h11.07l-5.39-21.61Z" transform="translate(-485.96 -309.06)"/><path class="cls-2" d="M888.19,754.94h-7.93q-5.89,0-9.12-3.14t-3.21-9v-23.7q0-5.91,3.21-9t9.12-3.14h7.93q5.84,0,9,3.18t3.21,9v2.24c0,1.1-.52,1.65-1.57,1.65h-6.35c-1,0-1.57-.55-1.57-1.65V719.5a4.8,4.8,0,0,0-1-3.4,4.52,4.52,0,0,0-3.36-1h-4.86a4.56,4.56,0,0,0-3.33,1,4.7,4.7,0,0,0-1,3.4v22.8a4.7,4.7,0,0,0,1,3.4,4.56,4.56,0,0,0,3.33,1h4.86a4.52,4.52,0,0,0,3.36-1,4.8,4.8,0,0,0,1-3.4v-4.71a.73.73,0,0,0-.83-.82h-4.48a1.39,1.39,0,0,1-1.57-1.57v-5.09a1.39,1.39,0,0,1,1.57-1.57h13.08a1.52,1.52,0,0,1,1.72,1.72v12.49q0,5.84-3.21,9T888.19,754.94Z" transform="translate(-485.96 -309.06)"/><path class="cls-2" d="M935.44,754.94H911a1.39,1.39,0,0,1-1.57-1.57V708.43a1.39,1.39,0,0,1,1.57-1.57h24.45c1,0,1.5.53,1.5,1.57v5.09c0,1-.5,1.57-1.5,1.57H919.82c-.6,0-.9.27-.9.82v9.72c0,.55.3.82.9.82H932.6a1.39,1.39,0,0,1,1.57,1.57v5.08a1.39,1.39,0,0,1-1.57,1.57H919.82c-.6,0-.9.28-.9.83v10.39c0,.55.3.82.9.82h15.62c1,0,1.5.53,1.5,1.57v5.09C936.94,754.41,936.44,754.94,935.44,754.94Z" transform="translate(-485.96 -309.06)"/><path class="cls-2" d="M977.16,706.86h11.06a1.39,1.39,0,0,1,1.57,1.57v44.94a1.39,1.39,0,0,1-1.57,1.57h-6.13a1.39,1.39,0,0,1-1.57-1.57V717.93h-.3l-7.62,25a1.83,1.83,0,0,1-1.87,1.5h-6.28a1.83,1.83,0,0,1-1.87-1.5l-7.78-25.12h-.29v35.52a2,2,0,0,1-.3,1.23,1.75,1.75,0,0,1-1.27.34h-6.13a1.4,1.4,0,0,1-1.58-1.57V708.43a1.4,1.4,0,0,1,1.58-1.57H958a1.4,1.4,0,0,1,1.41,1l7.93,26.39h.45l8-26.39A1.27,1.27,0,0,1,977.16,706.86Z" transform="translate(-485.96 -309.06)"/><path class="cls-2" d="M1025.53,754.94h-24.45a1.39,1.39,0,0,1-1.57-1.57V708.43a1.39,1.39,0,0,1,1.57-1.57h24.45c1,0,1.5.53,1.5,1.57v5.09c0,1-.5,1.57-1.5,1.57h-15.62c-.6,0-.9.27-.9.82v9.72c0,.55.3.82.9.82h12.78a1.39,1.39,0,0,1,1.57,1.57v5.08a1.39,1.39,0,0,1-1.57,1.57h-12.78c-.6,0-.9.28-.9.83v10.39c0,.55.3.82.9.82h15.62c1,0,1.5.53,1.5,1.57v5.09C1027,754.41,1026.53,754.94,1025.53,754.94Z" transform="translate(-485.96 -309.06)"/><path class="cls-2" d="M1043.1,754.94h-6.2a1.4,1.4,0,0,1-1.58-1.57V708.43a1.4,1.4,0,0,1,1.58-1.57h5.6a2.12,2.12,0,0,1,2.1,1l15.1,28.33h.3V708.43a1.39,1.39,0,0,1,1.57-1.57h6.2a1.39,1.39,0,0,1,1.57,1.57v44.94a1.39,1.39,0,0,1-1.57,1.57h-5.46a2.5,2.5,0,0,1-2.39-1.5l-15-27.81h-.3v27.74A1.39,1.39,0,0,1,1043.1,754.94Z" transform="translate(-485.96 -309.06)"/><path class="cls-2" d="M1093.94,754.94h-6.28c-1.1,0-1.65-.53-1.65-1.57V715.91a.72.72,0,0,0-.82-.82h-8.52a1.39,1.39,0,0,1-1.57-1.57v-5.09a1.39,1.39,0,0,1,1.57-1.57h28.26a1.39,1.39,0,0,1,1.57,1.57v5.09a1.39,1.39,0,0,1-1.57,1.57h-8.52c-.6,0-.9.27-.9.82v37.46A1.39,1.39,0,0,1,1093.94,754.94Z" transform="translate(-485.96 -309.06)"/><path class="cls-2" d="M1127.43,742.67v-1.49a1.39,1.39,0,0,1,1.57-1.57h6.36a1.39,1.39,0,0,1,1.57,1.57v.6c0,1.89.37,3.19,1.12,3.89s2.12,1,4.11,1h3.52c1.94,0,3.3-.37,4.07-1.12s1.16-2.14,1.16-4.19v-.89a3.75,3.75,0,0,0-1.76-3.33,9.29,9.29,0,0,0-4.37-1.38,48.08,48.08,0,0,1-5.65-.86,37.29,37.29,0,0,1-5.64-1.65,8.86,8.86,0,0,1-4.38-4,14.7,14.7,0,0,1-1.75-7.59v-2.62q0-5.82,3.29-9t9.12-3.22h7.48q5.89,0,9.19,3.22t3.29,9v1.42a1.39,1.39,0,0,1-1.57,1.57h-6.35a1.39,1.39,0,0,1-1.58-1.57v-.44c0-2-.37-3.27-1.12-4s-2.11-1-4.11-1h-2.91c-2,0-3.43.38-4.15,1.15s-1.09,2.29-1.09,4.53v1.42c0,2.34,2.05,3.69,6.13,4a37.84,37.84,0,0,1,11.29,2.54,9.61,9.61,0,0,1,4.38,4,14,14,0,0,1,1.75,7.36v2.54q0,5.83-3.29,9.05t-9.12,3.22h-8.15c-3.88,0-6.93-1.08-9.12-3.22S1127.43,746.56,1127.43,742.67Z" transform="translate(-485.96 -309.06)"/><path class="cls-2" d="M1188.89,754.94h-8.38q-5.9,0-9.12-3.14t-3.21-9v-23.7q0-5.91,3.21-9t9.12-3.14h8.38q5.89,0,9.12,3.14t3.21,9v23.7q0,5.91-3.21,9T1188.89,754.94Zm-6.88-8.23h5.31a3.72,3.72,0,0,0,4.41-4.41V719.5a3.72,3.72,0,0,0-4.41-4.41H1182a4.54,4.54,0,0,0-3.37,1,4.85,4.85,0,0,0-1,3.4v22.8a4.85,4.85,0,0,0,1,3.4A4.54,4.54,0,0,0,1182,746.71Z" transform="translate(-485.96 -309.06)"/><path class="cls-2" d="M1236.36,754.94h-24.59a1.4,1.4,0,0,1-1.58-1.57V708.43a1.4,1.4,0,0,1,1.58-1.57h6.35a1.39,1.39,0,0,1,1.57,1.57v37.38c0,.55.3.83.9.83h15.77c1,0,1.5.55,1.5,1.64v5.09C1237.86,754.41,1237.36,754.94,1236.36,754.94Z" transform="translate(-485.96 -309.06)"/><path class="cls-2" d="M1268.36,706.86h6.28q1.65,0,1.65,1.5v34.39q0,5.84-3.26,9t-9.08,3.18h-8.22q-5.91,0-9.13-3.14t-3.21-9V708.43a1.39,1.39,0,0,1,1.57-1.57h6.35a1.39,1.39,0,0,1,1.57,1.57V742.3a4.7,4.7,0,0,0,1,3.4,4.58,4.58,0,0,0,3.33,1h5.16a3.72,3.72,0,0,0,4.41-4.41V708.43A1.39,1.39,0,0,1,1268.36,706.86Z" transform="translate(-485.96 -309.06)"/><path class="cls-2" d="M1300.51,754.94h-6.28c-1.1,0-1.65-.53-1.65-1.57V715.91a.72.72,0,0,0-.82-.82h-8.52a1.39,1.39,0,0,1-1.57-1.57v-5.09a1.39,1.39,0,0,1,1.57-1.57h28.26a1.39,1.39,0,0,1,1.57,1.57v5.09a1.39,1.39,0,0,1-1.57,1.57H1303c-.6,0-.9.27-.9.82v37.46A1.39,1.39,0,0,1,1300.51,754.94Z" transform="translate(-485.96 -309.06)"/><path class="cls-2" d="M1328.62,708.43v44.94a1.39,1.39,0,0,1-1.57,1.57h-6.36a1.39,1.39,0,0,1-1.56-1.57V708.43a1.39,1.39,0,0,1,1.56-1.57h6.36A1.39,1.39,0,0,1,1328.62,708.43Z" transform="translate(-485.96 -309.06)"/><path class="cls-2" d="M1358.68,754.94h-8.38q-5.91,0-9.12-3.14t-3.21-9v-23.7q0-5.91,3.21-9t9.12-3.14h8.38q5.89,0,9.12,3.14t3.21,9v23.7q0,5.91-3.21,9T1358.68,754.94Zm-6.88-8.23h5.3a3.72,3.72,0,0,0,4.42-4.41V719.5a3.72,3.72,0,0,0-4.42-4.41h-5.3a4.54,4.54,0,0,0-3.37,1,4.8,4.8,0,0,0-1,3.4v22.8a4.8,4.8,0,0,0,1,3.4A4.54,4.54,0,0,0,1351.8,746.71Z" transform="translate(-485.96 -309.06)"/><path class="cls-2" d="M1387.76,754.94h-6.21a1.39,1.39,0,0,1-1.57-1.57V708.43a1.39,1.39,0,0,1,1.57-1.57h5.61a2.1,2.1,0,0,1,2.09,1l15.1,28.33h.3V708.43a1.39,1.39,0,0,1,1.57-1.57h6.21a1.39,1.39,0,0,1,1.57,1.57v44.94a1.39,1.39,0,0,1-1.57,1.57H1407a2.49,2.49,0,0,1-2.39-1.5l-14.95-27.81h-.3v27.74A1.39,1.39,0,0,1,1387.76,754.94Z" transform="translate(-485.96 -309.06)"/><polygon class="cls-3" points="783.63 10.35 729.16 97.54 816.34 152.02 783.63 10.35"/><polygon class="cls-3" points="608.3 254.09 702.24 103.75 609.96 46.09 608.3 254.09"/><polygon class="cls-3" points="712.59 87.19 767.07 0 625.23 32.59 712.59 87.19"/><polygon class="cls-3" points="718.8 114.1 624.98 264.26 811.27 171.88 718.8 114.1"/></svg>