<svg xmlns="http://www.w3.org/2000/svg" width="188.686" height="90.656" viewBox="0 0 188.686 90.656"><g transform="translate(-831 1780.434)"><path d="M495.427,452.5h-6.461a1.41,1.41,0,0,1-1.6-1.6V405.226a1.411,1.411,0,0,1,1.6-1.6h6.461a1.411,1.411,0,0,1,1.6,1.6v21.657h.152a25.037,25.037,0,0,1,2.356-4.713l11.55-16.944a3.255,3.255,0,0,1,2.964-1.6h7.447q.836,0,1.017.494t-.419,1.254l-14.435,19.988L523.769,450.6q.531.913.189,1.407a1.62,1.62,0,0,1-1.4.494h-5.542q-2.663,0-3.572-1.6l-11.629-18.621-4.788,5.626v13A1.41,1.41,0,0,1,495.427,452.5Z" transform="translate(343.919 -2164.837)" fill="#fff"/><path d="M694.09,389.332v-6.612a1.344,1.344,0,0,1,1.519-1.521h6.614q1.519,0,1.519,1.443v6.689a1.342,1.342,0,0,1-1.519,1.521h-6.614A1.343,1.343,0,0,1,694.09,389.332Zm0,43.712V397.465q0-1.594,1.519-1.6h6.536a1.41,1.41,0,0,1,1.6,1.6v35.579a1.752,1.752,0,0,1-.342,1.291,1.787,1.787,0,0,1-1.177.3h-6.536a1.422,1.422,0,0,1-1.6-1.606Z" transform="translate(179.228 -2146.967)" fill="#fff"/><path d="M770.5,423.883h-3.039a1.922,1.922,0,0,1-1.254-.3,1.631,1.631,0,0,1-.342-1.22v-5.239a1.412,1.412,0,0,1,1.6-1.6H770.5a.739.739,0,0,0,.836-.836v-7.222q0-1.6,1.673-1.6h6.384a1.411,1.411,0,0,1,1.6,1.6v7.222q0,.836.913.836h5.929a1.411,1.411,0,0,1,1.6,1.6v5.245a1.637,1.637,0,0,1-.344,1.179,1.765,1.765,0,0,1-1.252.342H781.9q-.913,0-.913.836v16.8a4.549,4.549,0,0,0,1.063,3.381,4.895,4.895,0,0,0,3.5,1.017h3.05a1.41,1.41,0,0,1,1.6,1.6v5.243a1.635,1.635,0,0,1-.341,1.179,1.832,1.832,0,0,1-1.265.352h-4.635q-6,0-9.318-3.192t-3.308-9.121V424.719A.731.731,0,0,0,770.5,423.883Z" transform="translate(122.049 -2166.622)" fill="#fff"/><path d="M942.108,492.111h-16.8q-6.006,0-9.271-3.192t-3.269-9.2V465.738q0-6,3.269-9.2t9.271-3.192h6.008q6,0,9.273,3.192t3.267,9.2v9.653a1.411,1.411,0,0,1-1.6,1.6H923.186c-.61,0-.913.279-.913.836v1.671a3.745,3.745,0,0,0,4.473,4.4H942.1q1.6,0,1.6,1.671v5.016a1.628,1.628,0,0,1-.344,1.179A1.8,1.8,0,0,1,942.108,492.111Zm-18.922-21.586h10.336a.739.739,0,0,0,.836-.836v-3.647a4.737,4.737,0,0,0-.988-3.42,4.806,4.806,0,0,0-3.42-.988h-3.192a3.685,3.685,0,0,0-4.41,4.408v3.647A.737.737,0,0,0,923.186,470.526Z" transform="translate(5.008 -2204.448)" fill="#fff"/><path d="M487.561,716.624h-1.293a.283.283,0,0,1-.319-.319v-9.137a.283.283,0,0,1,.319-.319h1.293a.283.283,0,0,1,.319.319V711.5h.03a5.014,5.014,0,0,1,.472-.943l2.31-3.389a.655.655,0,0,1,.594-.319h1.488c.112,0,.181.033.2.1a.268.268,0,0,1-.083.25l-2.887,4,3.222,5.048c.069.12.083.216.037.281a.317.317,0,0,1-.281.1h-1.11a.753.753,0,0,1-.714-.319l-2.326-3.725-.958,1.124v2.6a.283.283,0,0,1-.317.319Z" transform="translate(345.054 -2406.406)" fill="#fff"/><path d="M529.979,707.168v9.137a.283.283,0,0,1-.319.319h-1.291a.283.283,0,0,1-.319-.319v-9.137a.283.283,0,0,1,.319-.319h1.3a.283.283,0,0,1,.315.319Z" transform="translate(311.513 -2406.406)" fill="#fff"/><path d="M551.111,716.715h-1.7a2.541,2.541,0,0,1-1.854-.638,2.444,2.444,0,0,1-.653-1.83v-4.818a2.424,2.424,0,0,1,.653-1.83,2.6,2.6,0,0,1,1.854-.638h1.7a2.55,2.55,0,0,1,1.854.638,2.423,2.423,0,0,1,.653,1.83v4.818a2.424,2.424,0,0,1-.653,1.83A2.6,2.6,0,0,1,551.111,716.715Zm-1.4-1.673h1.071a.756.756,0,0,0,.9-.9V709.51a.756.756,0,0,0-.9-.9H549.7a.923.923,0,0,0-.685.2.975.975,0,0,0-.2.691v4.635a.975.975,0,0,0,.2.691A.923.923,0,0,0,549.712,715.042Z" transform="translate(296.493 -2406.497)" fill="#fff"/><path d="M587.679,714.109v-.3a.283.283,0,0,1,.319-.319h1.291a.283.283,0,0,1,.319.319v.122a1.077,1.077,0,0,0,.228.791,1.24,1.24,0,0,0,.836.2h.724a.883.883,0,0,0,1.063-1.08v-.181a.76.76,0,0,0-.356-.677,1.9,1.9,0,0,0-.891-.281,9.8,9.8,0,0,1-1.147-.175,7.687,7.687,0,0,1-1.149-.335,1.8,1.8,0,0,1-.888-.813,2.988,2.988,0,0,1-.358-1.543V709.3a2.427,2.427,0,0,1,.669-1.83,2.583,2.583,0,0,1,1.854-.655h1.521a2.561,2.561,0,0,1,1.87.655,2.437,2.437,0,0,1,.667,1.83v.289a.283.283,0,0,1-.319.319h-1.291a.283.283,0,0,1-.319-.319V709.5a1.1,1.1,0,0,0-.228-.813,1.21,1.21,0,0,0-.836-.2h-.594a1.166,1.166,0,0,0-.844.234,1.4,1.4,0,0,0-.22.921v.289q0,.714,1.246.813a7.705,7.705,0,0,1,2.3.516,1.95,1.95,0,0,1,.888.813,2.848,2.848,0,0,1,.358,1.5v.516a2.457,2.457,0,0,1-.669,1.84,2.538,2.538,0,0,1-1.854.655H590.21a2.538,2.538,0,0,1-1.854-.655A2.452,2.452,0,0,1,587.679,714.109Z" transform="translate(264.013 -2406.385)" fill="#fff"/><path d="M630.81,716.624h-1.291a.283.283,0,0,1-.319-.319v-9.137a.283.283,0,0,1,.319-.319h1.291a.283.283,0,0,1,.319.319V711.5h.03a5.016,5.016,0,0,1,.472-.943l2.312-3.389a.653.653,0,0,1,.592-.319h1.49c.112,0,.179.033.2.1s0,.148-.083.25l-2.889,4,3.22,5.048c.071.12.083.216.039.281a.323.323,0,0,1-.281.1h-1.11a.755.755,0,0,1-.716-.319l-2.324-3.725-.96,1.124v2.6a.283.283,0,0,1-.315.319Z" transform="translate(230.928 -2406.406)" fill="#fff"/><path d="M693.892,706.849h2.249a.283.283,0,0,1,.319.319v9.137a.283.283,0,0,1-.319.319h-1.246a.283.283,0,0,1-.319-.319V709.1h-.061l-1.549,5.083a.372.372,0,0,1-.38.305h-1.277a.372.372,0,0,1-.38-.305l-1.582-5.107h-.059V716.3a.407.407,0,0,1-.061.25.356.356,0,0,1-.258.069h-1.236a.285.285,0,0,1-.321-.319v-9.129a.285.285,0,0,1,.321-.319H690a.287.287,0,0,1,.289.2l1.61,5.365h.091l1.626-5.365A.258.258,0,0,1,693.892,706.849Z" transform="translate(184.551 -2406.406)" fill="#fff"/><path d="M740.141,716.619h-1.458c-.183,0-.244-.108-.183-.319l2.4-9.137a.439.439,0,0,1,.455-.319h2.033a.407.407,0,0,1,.455.319l2.4,9.137c.061.2,0,.319-.181.319h-1.46a.3.3,0,0,1-.228-.069.517.517,0,0,1-.091-.25l-.425-1.673h-2.974l-.427,1.673a.476.476,0,0,1-.1.25A.311.311,0,0,1,740.141,716.619Zm2.2-7.929-1.094,4.394H743.5l-1.1-4.394Z" transform="translate(143.865 -2406.401)" fill="#fff"/><path d="M784.869,716.62h-1.26a.283.283,0,0,1-.319-.319v-9.137a.283.283,0,0,1,.319-.319h1.138a.431.431,0,0,1,.427.2l3.07,5.76h.061v-5.644a.283.283,0,0,1,.319-.319h1.26a.283.283,0,0,1,.319.319V716.3a.283.283,0,0,1-.319.319h-1.108a.51.51,0,0,1-.488-.3l-3.04-5.654h-.061v5.64a.283.283,0,0,1-.319.319Z" transform="translate(108.166 -2406.401)" fill="#fff"/><path d="M825.481,716.619h-1.458c-.183,0-.244-.108-.183-.319l2.4-9.137a.439.439,0,0,1,.455-.319h2.033a.407.407,0,0,1,.455.319l2.4,9.137c.061.2,0,.319-.181.319h-1.445a.3.3,0,0,1-.228-.069.517.517,0,0,1-.091-.25l-.425-1.673h-2.974l-.427,1.673a.476.476,0,0,1-.1.25.311.311,0,0,1-.23.069Zm2.2-7.929-1.094,4.394h2.251l-1.1-4.394Z" transform="translate(75.875 -2406.401)" fill="#fff"/><path d="M872.049,716.715h-1.612a2.55,2.55,0,0,1-1.854-.638,2.423,2.423,0,0,1-.653-1.83v-4.818a2.424,2.424,0,0,1,.653-1.83,2.6,2.6,0,0,1,1.854-.638h1.612a2.466,2.466,0,0,1,1.83.647,2.516,2.516,0,0,1,.653,1.83v.455c0,.224-.106.335-.319.335h-1.291a.293.293,0,0,1-.319-.335v-.382a.976.976,0,0,0-.2-.691.918.918,0,0,0-.683-.2h-.988a.927.927,0,0,0-.677.2.955.955,0,0,0-.2.691v4.635a.956.956,0,0,0,.2.691.928.928,0,0,0,.677.2h.988a.919.919,0,0,0,.683-.2.976.976,0,0,0,.2-.691v-.958a.148.148,0,0,0-.169-.167h-.911a.283.283,0,0,1-.319-.319v-1.035a.283.283,0,0,1,.319-.319h2.659a.309.309,0,0,1,.35.35v2.539a2.453,2.453,0,0,1-.653,1.83A2.516,2.516,0,0,1,872.049,716.715Z" transform="translate(40.732 -2406.497)" fill="#fff"/><path d="M914.707,716.624h-4.969a.283.283,0,0,1-.319-.319v-9.137a.283.283,0,0,1,.319-.319h4.971c.2,0,.3.108.3.319V708.2a.28.28,0,0,1-.3.319h-3.178c-.122,0-.183.055-.183.167v1.976c0,.112.061.167.183.167h2.6a.283.283,0,0,1,.319.319v1.033a.283.283,0,0,1-.319.319h-2.6c-.122,0-.183.057-.183.169v2.112c0,.112.061.167.183.167h3.176c.2,0,.3.108.3.319v1.035C915.012,716.517,914.911,716.624,914.707,716.624Z" transform="translate(7.68 -2406.406)" fill="#fff"/><path d="M951.712,706.849h2.249a.283.283,0,0,1,.319.319v9.137a.283.283,0,0,1-.319.319h-1.246a.283.283,0,0,1-.319-.319V709.1h-.061l-1.549,5.083a.372.372,0,0,1-.38.305h-1.277a.372.372,0,0,1-.38-.305l-1.582-5.107h-.059V716.3a.406.406,0,0,1-.061.25.356.356,0,0,1-.258.069h-1.246a.285.285,0,0,1-.321-.319v-9.129a.285.285,0,0,1,.321-.319h2.275a.285.285,0,0,1,.287.2l1.612,5.365h.091l1.627-5.365A.258.258,0,0,1,951.712,706.849Z" transform="translate(-20.843 -2406.406)" fill="#fff"/><path d="M1004.789,716.624h-4.971a.283.283,0,0,1-.319-.319v-9.137a.283.283,0,0,1,.319-.319h4.971c.2,0,.3.108.3.319V708.2a.28.28,0,0,1-.3.319h-3.176c-.122,0-.183.055-.183.167v1.976c0,.112.061.167.183.167h2.6a.283.283,0,0,1,.319.319v1.033a.283.283,0,0,1-.319.319h-2.6c-.122,0-.183.057-.183.169v2.112c0,.112.061.167.183.167h3.176c.2,0,.3.108.3.319v1.035C1005.088,716.517,1004.993,716.624,1004.789,716.624Z" transform="translate(-64.086 -2406.406)" fill="#fff"/><path d="M1036.892,716.62h-1.26a.285.285,0,0,1-.321-.319v-9.137a.285.285,0,0,1,.321-.319h1.139a.431.431,0,0,1,.427.2l3.07,5.76h.061v-5.644a.283.283,0,0,1,.319-.319h1.26a.283.283,0,0,1,.319.319V716.3a.283.283,0,0,1-.319.319h-1.11a.509.509,0,0,1-.486-.3l-3.05-5.654h-.061v5.64a.283.283,0,0,1-.309.319Z" transform="translate(-92.617 -2406.401)" fill="#fff"/><path d="M1078.92,716.624h-1.277c-.224,0-.336-.108-.336-.319v-7.616a.146.146,0,0,0-.167-.167h-1.732a.283.283,0,0,1-.319-.319v-1.035a.283.283,0,0,1,.319-.319h5.746a.283.283,0,0,1,.319.319V708.2a.283.283,0,0,1-.319.319h-1.732c-.122,0-.183.055-.183.167v7.616a.283.283,0,0,1-.319.319Z" transform="translate(-124.308 -2406.406)" fill="#fff"/><path d="M1127.364,714.109v-.3a.283.283,0,0,1,.319-.319h1.293a.282.282,0,0,1,.319.319v.122a1.068,1.068,0,0,0,.228.791,1.243,1.243,0,0,0,.836.2h.716a.883.883,0,0,0,1.063-1.08v-.181a.763.763,0,0,0-.358-.677,1.889,1.889,0,0,0-.888-.281,9.766,9.766,0,0,1-1.149-.175,7.573,7.573,0,0,1-1.147-.335,1.8,1.8,0,0,1-.891-.813,2.989,2.989,0,0,1-.356-1.543V709.3a2.427,2.427,0,0,1,.669-1.83,2.584,2.584,0,0,1,1.854-.655h1.521a2.562,2.562,0,0,1,1.868.655,2.433,2.433,0,0,1,.669,1.83v.289a.283.283,0,0,1-.319.319h-1.291a.283.283,0,0,1-.321-.319V709.5a1.1,1.1,0,0,0-.228-.813,1.207,1.207,0,0,0-.836-.2h-.592a1.166,1.166,0,0,0-.844.234,1.394,1.394,0,0,0-.222.921v.289c0,.476.417.75,1.246.813a7.694,7.694,0,0,1,2.3.516,1.955,1.955,0,0,1,.891.813,2.845,2.845,0,0,1,.356,1.5v.516a2.457,2.457,0,0,1-.669,1.84,2.538,2.538,0,0,1-1.854.655h-1.657a2.545,2.545,0,0,1-1.854-.655A2.4,2.4,0,0,1,1127.364,714.109Z" transform="translate(-165.943 -2406.385)" fill="#fff"/><path d="M1172.391,716.715h-1.7a2.545,2.545,0,0,1-1.854-.638,2.433,2.433,0,0,1-.653-1.83v-4.818a2.424,2.424,0,0,1,.653-1.83,2.6,2.6,0,0,1,1.854-.638h1.7a2.55,2.55,0,0,1,1.854.638,2.423,2.423,0,0,1,.653,1.83v4.818a2.424,2.424,0,0,1-.653,1.83A2.6,2.6,0,0,1,1172.391,716.715Zm-1.4-1.673h1.08a.756.756,0,0,0,.9-.9V709.51a.756.756,0,0,0-.9-.9h-1.082a.923.923,0,0,0-.685.2.987.987,0,0,0-.2.691v4.635a.986.986,0,0,0,.2.691.924.924,0,0,0,.685.207Z" transform="translate(-198.475 -2406.497)" fill="#fff"/><path d="M1215.5,716.624h-5a.285.285,0,0,1-.321-.319v-9.137a.285.285,0,0,1,.321-.319h1.291a.282.282,0,0,1,.319.319v7.6c0,.112.061.169.183.169h3.206c.2,0,.305.112.305.333v1.035C1215.806,716.517,1215.7,716.624,1215.5,716.624Z" transform="translate(-231.934 -2406.406)" fill="#fff"/><path d="M1248.456,706.848h1.277q.335,0,.335.3v6.992a2.431,2.431,0,0,1-.663,1.83,2.555,2.555,0,0,1-1.846.647h-1.671a2.549,2.549,0,0,1-1.856-.638,2.434,2.434,0,0,1-.653-1.83v-6.986a.283.283,0,0,1,.319-.319h1.291a.283.283,0,0,1,.319.319v6.886a.956.956,0,0,0,.2.691.931.931,0,0,0,.677.2h1.049a.756.756,0,0,0,.9-.9v-6.884a.283.283,0,0,1,.321-.319Z" transform="translate(-258.383 -2406.405)" fill="#fff"/><path d="M1285.49,716.624h-1.277c-.224,0-.335-.108-.335-.319v-7.616a.146.146,0,0,0-.167-.167h-1.732a.283.283,0,0,1-.319-.319v-1.035a.283.283,0,0,1,.319-.319h5.746a.283.283,0,0,1,.319.319V708.2a.283.283,0,0,1-.319.319H1286c-.122,0-.183.055-.183.167v7.616a.283.283,0,0,1-.323.319Z" transform="translate(-288.88 -2406.406)" fill="#fff"/><path d="M1321.049,707.168v9.137a.283.283,0,0,1-.319.319h-1.293a.283.283,0,0,1-.317-.319v-9.137a.282.282,0,0,1,.317-.319h1.293a.283.283,0,0,1,.319.319Z" transform="translate(-318.724 -2406.406)" fill="#fff"/><path d="M1342.181,716.715h-1.7a2.541,2.541,0,0,1-1.854-.638,2.444,2.444,0,0,1-.653-1.83v-4.818a2.424,2.424,0,0,1,.653-1.83,2.6,2.6,0,0,1,1.854-.638h1.7a2.549,2.549,0,0,1,1.854.638,2.423,2.423,0,0,1,.653,1.83v4.818a2.424,2.424,0,0,1-.653,1.83A2.6,2.6,0,0,1,1342.181,716.715Zm-1.4-1.673h1.078a.756.756,0,0,0,.9-.9V709.51a.756.756,0,0,0-.9-.9h-1.078a.923.923,0,0,0-.685.2.976.976,0,0,0-.2.691v4.635a.976.976,0,0,0,.2.691A.923.923,0,0,0,1340.782,715.042Z" transform="translate(-333.745 -2406.497)" fill="#fff"/><path d="M1381.551,716.619h-1.263a.283.283,0,0,1-.319-.319v-9.137a.283.283,0,0,1,.319-.319h1.141a.426.426,0,0,1,.425.2l3.07,5.76h.061v-5.644a.283.283,0,0,1,.319-.319h1.263a.283.283,0,0,1,.319.319V716.3a.283.283,0,0,1-.319.319h-1.1a.506.506,0,0,1-.486-.3l-3.04-5.654h-.061v5.64a.283.283,0,0,1-.325.319Z" transform="translate(-367.203 -2406.401)" fill="#fff"/><path d="M740.234,10.35,729.16,28.077l17.725,11.076Z" transform="translate(250.089 -1788.68)" fill="#52c3df"/><path d="M608.3,88.379l19.1-30.566L608.637,46.09Z" transform="translate(346.377 -1817.154)" fill="#52c3df"/><path d="M642.991,17.727,654.068,0,625.23,6.626Z" transform="translate(332.889 -1780.434)" fill="#52c3df"/><path d="M644.055,114.1,624.98,144.629l37.875-18.782Z" transform="translate(333.088 -1871.336)" fill="#52c3df"/></g></svg>