<svg xmlns="http://www.w3.org/2000/svg" viewBox="0 0 113.361 25.613">
  <defs>
    <style>
      .cls-1 {
        fill: #42596a;
      }

      .cls-1, .cls-2, .cls-3 {
        fill-rule: evenodd;
      }

      .cls-2 {
        fill: #24b4d3;
      }

      .cls-3 {
        fill: none;
        stroke: #24b4d3;
        stroke-width: 2.89px;
      }
    </style>
  </defs>
  <g id="altron" transform="translate(-15.51 -89.127)">
    <g id="_5004386B_Alton_Bytes_Managed_Solutions_rgb-fa-01" data-name="5004386B_Alton_Bytes_Managed_Solutions_rgb-fa-01" transform="translate(15.51 89.127)">
      <path id="Fill-1" class="cls-1" d="M8.576,29.97H3.42l-.984,2.168H.51l4.218-9a1.659,1.659,0,0,1,1.5-.955h.62l4.652,9.96H9.576Zm-4.5-1.463h3.84l-1.934-4.2Z" transform="translate(-0.51 -14.351)"/>
      <path id="Fill-2" class="cls-1" d="M44.151,30.613v1.524h-4.63a1.143,1.143,0,0,1-1.143-1.143V22.178h1.634v8.435h4.139" transform="translate(-24.936 -14.351)"/>
      <path id="Fill-3" class="cls-1" d="M88.965,28.451H86.647v3.686H85.013V23.313a1.135,1.135,0,0,1,1.135-1.135h3.17a3.151,3.151,0,0,1,3.346,3.151,3.025,3.025,0,0,1-2.025,2.893l2.3,3.916H91.106Zm-2.317-1.53h2.575a1.615,1.615,0,1,0,0-3.213H86.647Z" transform="translate(-55.018 -14.351)"/>
      <path id="Fill-4" class="cls-1" d="M114.535,26.817a5.251,5.251,0,1,1,5.255,5.167A5.078,5.078,0,0,1,114.535,26.817Zm8.839,0a3.588,3.588,0,1,0-3.584,3.594A3.5,3.5,0,0,0,123.374,26.817Z" transform="translate(-74.061 -14.01)"/>
      <path id="Fill-5" class="cls-1" d="M162.633,22.178v9.208a.751.751,0,0,1-.751.752h-.69l-5.733-7.112v7.112h-1.7V23.274a1.1,1.1,0,0,1,1.1-1.1h.469l5.615,6.994V22.178h1.7" transform="translate(-99.36 -14.351)"/>
      <path id="Fill-6" class="cls-1" d="M59.039,22.178h-4.3V23.7h3.738v8.435h1.634V23.249a1.071,1.071,0,0,0-1.071-1.071" transform="translate(-35.49 -14.351)"/>
      <path id="Fill-7" class="cls-2" d="M72.09,23.7h3.061V22.178H72.09Z" transform="translate(-46.682 -14.351)"/>
      <path id="Fill-8" class="cls-1" d="M225.185,34.43l-.513-3.193-1.432,3.125h-.185l-1.433-3.123-.516,3.191h-.738l.72-4.405h.711l1.343,3,1.349-3h.721l.709,4.405h-.737" transform="translate(-142.328 -19.412)"/>
      <path id="Fill-9" class="cls-1" d="M240.083,33.471h-1.965l-.374.959h-.768l1.77-4.405h.68l1.822,4.405h-.784Zm-1.715-.647h1.463l-.737-1.858Z" transform="translate(-153.04 -19.412)"/>
      <path id="Fill-10" class="cls-1" d="M254.437,30.025V34.43h-.607l-2.288-3.146V34.43h-.709V30.025h.653l2.242,3.094V30.025h.708" transform="translate(-161.978 -19.412)"/>
      <path id="Fill-11" class="cls-1" d="M265.912,33.471h-1.964l-.374.959H262.8l1.77-4.405h.68l1.822,4.405h-.784Zm-1.714-.647h1.463l-.736-1.858Z" transform="translate(-169.701 -19.412)"/>
      <path id="Fill-12" class="cls-1" d="M280.35,32.051a2.239,2.239,0,1,1-2.238-2.247,2.147,2.147,0,0,1,2.172,1.635h-.746a1.438,1.438,0,0,0-1.412-.935,1.585,1.585,0,0,0,0,3.167,1.426,1.426,0,0,0,1.439-1H278v-.624h2.355" transform="translate(-178.129 -19.27)"/>
      <path id="Fill-13" class="cls-1" d="M293.437,33.747v.683H290.81V30.025h2.559V30.7h-1.836v1.15H293.2v.663h-1.672v1.232h1.9" transform="translate(-187.765 -19.412)"/>
      <path id="Fill-14" class="cls-1" d="M304.455,32.225a2.147,2.147,0,0,1-2.234,2.2h-1.553V30.025h1.553A2.144,2.144,0,0,1,304.455,32.225Zm-.739,0A1.462,1.462,0,0,0,302.2,30.7h-.81v3.057h.81A1.466,1.466,0,0,0,303.716,32.225Z" transform="translate(-194.124 -19.412)"/>
      <path id="Fill-15" class="cls-1" d="M223.383,9.233a1.135,1.135,0,0,1,.626,1.061,1.286,1.286,0,0,1-1.356,1.234h-1.81V7.123h1.775a1.156,1.156,0,0,1,.765,2.11Zm-.208-.871a.571.571,0,0,0-.6-.573h-1.018V8.935h1.018A.571.571,0,0,0,223.175,8.361Zm.1,1.852a.622.622,0,0,0-.66-.622h-1.056v1.245h1.056A.62.62,0,0,0,223.273,10.214Z" transform="translate(-142.633 -4.64)"/>
      <path id="Fill-16" class="cls-1" d="M233.411,9.763v1.765h-.743V9.76l-1.581-2.637h.781l1.176,1.971,1.18-1.971H235l-1.594,2.64" transform="translate(-149.241 -4.64)"/>
      <path id="Fill-17" class="cls-1" d="M245.835,7.8h-1.292v3.731h-.723V7.8h-1.292V7.123h3.306V7.8" transform="translate(-156.622 -4.64)"/>
      <path id="Fill-18" class="cls-1" d="M256.428,10.845v.683H253.8V7.123h2.558V7.8h-1.835V8.95H256.2v.663h-1.672v1.232h1.9" transform="translate(-163.893 -4.64)"/>
      <path id="Fill-19" class="cls-1" d="M262.85,10.022h.734c0,.492.405.764.921.764.469,0,.87-.246.87-.651,0-.438-.472-.549-1-.674-.674-.164-1.448-.35-1.448-1.259,0-.795.6-1.264,1.541-1.264a1.332,1.332,0,0,1,1.521,1.352h-.715c0-.44-.363-.678-.823-.678-.439,0-.8.2-.8.56,0,.407.453.518.976.642.685.17,1.492.366,1.492,1.313,0,.881-.711,1.35-1.6,1.35a1.471,1.471,0,0,1-1.662-1.455" transform="translate(-169.73 -4.521)"/>
      <path id="Fill-20" class="cls-1" d="M220.066,55.823h.733c0,.492.405.765.922.765.469,0,.869-.246.869-.651,0-.438-.471-.549-1-.674-.674-.164-1.447-.35-1.447-1.259,0-.795.6-1.264,1.541-1.264a1.332,1.332,0,0,1,1.521,1.352h-.715c0-.439-.363-.677-.823-.677-.439,0-.8.2-.8.56,0,.407.453.517.976.642.685.17,1.492.366,1.492,1.313,0,.881-.711,1.35-1.6,1.35a1.471,1.471,0,0,1-1.661-1.455" transform="translate(-142.132 -34.064)"/>
      <path id="Fill-21" class="cls-1" d="M233.142,57.262a2.286,2.286,0,1,1,2.32-2.285,2.246,2.246,0,0,1-2.32,2.285Zm1.585-2.285a1.587,1.587,0,1,0-1.585,1.59A1.548,1.548,0,0,0,234.728,54.977Z" transform="translate(-149.068 -34.033)"/>
      <path id="Fill-22" class="cls-1" d="M248.814,56.656v.674H246.26V52.925h.723v3.731h1.831" transform="translate(-159.028 -34.184)"/>
      <path id="Fill-23" class="cls-1" d="M255.27,55.682V52.925H256v2.713a1.042,1.042,0,1,0,2.082,0V52.925h.727v2.757a1.769,1.769,0,0,1-3.536,0" transform="translate(-164.84 -34.184)"/>
      <path id="Fill-24" class="cls-1" d="M270.364,53.6h-1.291V57.33h-.723V53.6h-1.291v-.674h3.306V53.6" transform="translate(-172.444 -34.184)"/>
      <path id="Fill-25" class="cls-1" d="M278.33,57.33h.723V52.925h-.723Z" transform="translate(-179.715 -34.184)"/>
      <path id="Fill-26" class="cls-1" d="M285.05,57.262a2.286,2.286,0,1,1,2.32-2.285,2.246,2.246,0,0,1-2.32,2.285Zm1.585-2.285a1.587,1.587,0,1,0-1.585,1.59A1.548,1.548,0,0,0,286.636,54.977Z" transform="translate(-182.55 -34.033)"/>
      <path id="Fill-27" class="cls-1" d="M301.771,52.925V57.33h-.607l-2.289-3.146V57.33h-.708V52.925h.654l2.242,3.094V52.925h.708" transform="translate(-192.51 -34.184)"/>
      <path id="Fill-28" class="cls-1" d="M310.673,55.823h.734c0,.492.405.765.922.765.469,0,.87-.246.87-.651,0-.438-.472-.549-1-.674-.674-.164-1.448-.35-1.448-1.259,0-.795.6-1.264,1.541-1.264.956,0,1.522.521,1.522,1.352H313.1c0-.439-.363-.677-.823-.677-.439,0-.8.2-.8.56,0,.407.453.517.976.642.685.17,1.492.366,1.492,1.313,0,.881-.711,1.35-1.6,1.35a1.471,1.471,0,0,1-1.662-1.455" transform="translate(-200.577 -34.064)"/>
      <path id="Stroke-29" class="cls-3" d="M199.882.127V25.741" transform="translate(-129.113 -0.127)"/>
    </g>
  </g>
</svg>
